<?xml version="1.0" encoding="utf-8"?>
<!-- Generator: Adobe Illustrator 19.2.0, SVG Export Plug-In . SVG Version: 6.00 Build 0)  -->
<!DOCTYPE svg PUBLIC "-//W3C//DTD SVG 1.1//EN" "http://www.w3.org/Graphics/SVG/1.1/DTD/svg11.dtd">
<svg version="1.1" id="Layer_1" xmlns="http://www.w3.org/2000/svg" xmlns:xlink="http://www.w3.org/1999/xlink" x="0px" y="0px"
	 viewBox="0 0 175 175" style="enable-background:new 0 0 175 175;" xml:space="preserve">
<path d="M87.5,175C39.3,175,0,135.7,0,87.5S39.3,0,87.5,0S175,39.3,175,87.5S135.7,175,87.5,175z M87.5,15C47.5,15,15,47.5,15,87.5
	S47.5,160,87.5,160S160,127.5,160,87.5S127.5,15,87.5,15z"/>
<path d="M44.9,99.9c0-5.1,1.4-10.9,4.1-17.4c2.8-6.6,6.3-12.9,10.7-19c9-11.8,16.8-20.8,23.3-26.9l4.3-4.1c1.4,1.5,3,2.9,4.8,4.1
	c2.4,2.4,6,6.4,10.8,12c4.8,5.6,9,10.6,12.5,15.2c4.1,5.8,7.6,12.1,10.4,18.7s4.3,12.4,4.3,17.4c0,5.8-1.1,11.2-3.3,16.4
	c-2.2,5.2-5.2,9.8-9,13.6c-3.8,3.8-8.3,6.8-13.6,9.1c-5.3,2.2-10.9,3.4-16.7,3.4c-5.8,0-11.2-1.1-16.4-3.3
	c-5.2-2.2-9.8-5.1-13.6-8.9c-3.8-3.7-6.8-8.3-9.1-13.5C46,111.6,44.9,105.9,44.9,99.9z M57.9,83.1c0,4.8,1,8.6,3,11.4
	c2,2.8,5.1,4.3,9.1,4.3c4.1,0,7.2-1.4,9.3-4.3c2-2.8,3-6.6,3.1-11.4c-0.1-4.8-1.1-8.6-3.1-11.5c-2-2.8-5.1-4.3-9.3-4.3
	c-4.1,0-7.1,1.4-9.1,4.3C58.9,74.5,57.9,78.3,57.9,83.1z M66.9,83.1c0-0.9,0-1.6,0-2c0-0.5,0.1-1.1,0.1-1.9s0.1-1.4,0.3-1.8
	c0.2-0.4,0.3-0.9,0.5-1.4s0.5-0.9,0.9-1c0.4-0.2,0.8-0.3,1.3-0.3c0.8,0,1.4,0.2,1.9,0.7c0.5,0.5,0.8,1.2,1,2.2
	c0.2,1,0.3,1.8,0.3,2.6s0.1,1.7,0.1,3c0,1.3,0,2.3-0.1,3s-0.2,1.6-0.3,2.6c-0.2,1-0.5,1.7-1,2.2c-0.5,0.5-1.1,0.7-1.9,0.7
	c-0.5,0-0.9-0.1-1.3-0.3c-0.4-0.2-0.7-0.6-0.9-1c-0.2-0.5-0.4-1-0.5-1.4c-0.1-0.5-0.2-1.1-0.3-1.8c-0.1-0.8-0.1-1.4-0.1-1.8
	S66.9,84,66.9,83.1z M70.3,127.7h7.6l28.7-61.8h-7.8L70.3,127.7z M95,110.5c0.1,4.8,1.2,8.6,3.2,11.5c2,2.8,5.1,4.3,9.2,4.3
	c4.1,0,7.2-1.4,9.2-4.3c2-2.8,3-6.7,3-11.5c-0.1-4.8-1-8.6-3-11.4c-2-2.8-5.1-4.3-9.2-4.3c-4.1,0-7.2,1.4-9.2,4.3
	C96.1,101.8,95.1,105.6,95,110.5z M104.1,110.5c0-1.3,0-2.3,0.1-3c0.1-0.7,0.2-1.6,0.3-2.6c0.2-1,0.5-1.7,1-2.2
	c0.5-0.5,1.1-0.7,1.9-0.7c0.5,0,1,0.1,1.4,0.3c0.4,0.2,0.7,0.6,0.9,1.1c0.2,0.5,0.4,1,0.6,1.4c0.2,0.4,0.2,1,0.3,1.8l0.1,1.8v2
	c0,0.9,0,1.6,0,2l-0.1,1.8l-0.3,1.8l-0.6,1.4l-0.9,1.1l-1.4,0.3c-0.8,0-1.4-0.2-1.9-0.7c-0.5-0.5-0.8-1.2-1-2.2
	c-0.2-1-0.3-1.9-0.3-2.6S104.1,111.8,104.1,110.5z"/>
</svg>
