<?xml version="1.0" encoding="utf-8"?>
<!-- Generator: Adobe Illustrator 19.2.0, SVG Export Plug-In . SVG Version: 6.00 Build 0)  -->
<!DOCTYPE svg PUBLIC "-//W3C//DTD SVG 1.1//EN" "http://www.w3.org/Graphics/SVG/1.1/DTD/svg11.dtd">
<svg version="1.1" id="Layer_1" xmlns="http://www.w3.org/2000/svg" xmlns:xlink="http://www.w3.org/1999/xlink" x="0px" y="0px"
	 viewBox="0 0 175 175" style="enable-background:new 0 0 175 175;" xml:space="preserve">
<path d="M62.2,117.2c0-4.2,1-8.2,2.9-11.9c1.9-3.7,4.7-6.7,8.2-9.2V46.8c0-4,1.3-7.4,4.1-10.1s6.1-4.2,10.1-4.2
	c4,0,7.4,1.4,10.2,4.1c2.7,2.8,4.1,6.1,4.1,10.1v49.4c3.5,2.4,6.2,5.5,8.2,9.2c1.9,3.6,2.9,7.6,2.9,11.9c0,4.6-1.1,8.9-3.4,12.7
	c-2.2,3.9-5.3,7-9.2,9.2c-3.9,2.2-8.1,3.4-12.7,3.4c-4.6,0-8.8-1.1-12.7-3.4c-3.9-2.2-7-5.3-9.3-9.2C63.2,126,62.2,121.8,62.2,117.2
	z M70.9,117.2c0,4.6,1.6,8.6,4.9,11.9c3.2,3.3,7.2,4.9,11.8,4.9c4.6,0,8.6-1.6,12-5c3.3-3.3,5-7.3,5-11.8c0-3.1-0.8-6-2.4-8.6
	c-1.6-2.6-3.8-4.7-6.6-6.1l-1.4-0.7c-0.5-0.2-0.7-0.7-0.7-1.4V46.8c0-1.6-0.5-2.9-1.7-4c-1.1-1-2.5-1.6-4.2-1.6
	c-1.6,0-3,0.5-4.1,1.6c-1.1,1-1.7,2.4-1.7,4v53.5c0,0.7-0.2,1.2-0.7,1.4l-1.3,0.7c-2.7,1.4-4.9,3.5-6.4,6.1
	C71.7,111.2,70.9,114,70.9,117.2z M74.8,117.2c0,3.5,1.2,6.6,3.6,9.1c2.4,2.5,5.3,3.7,8.8,3.7s6.4-1.2,8.9-3.7
	c2.5-2.5,3.8-5.5,3.8-9c0-3.1-1.1-5.9-3.2-8.3c-2.1-2.4-4.8-3.8-7.9-4.2V68.1c0-0.3-0.1-0.6-0.5-0.9c-0.3-0.3-0.7-0.5-1.1-0.5
	c-0.4,0-0.8,0.1-1,0.4c-0.2,0.3-0.4,0.6-0.4,1v36.6c-3,0.4-5.6,1.8-7.8,4.2C75.8,111.3,74.8,114,74.8,117.2z"/>
<path d="M87.5,175C39.3,175,0,135.7,0,87.5C0,39.3,39.3,0,87.5,0C135.7,0,175,39.3,175,87.5C175,135.7,135.7,175,87.5,175z M87.5,15
	C47.5,15,15,47.5,15,87.5S47.5,160,87.5,160S160,127.5,160,87.5S127.5,15,87.5,15z"/>
</svg>
