<?xml version="1.0" encoding="utf-8"?>
<!-- Generator: Adobe Illustrator 19.2.0, SVG Export Plug-In . SVG Version: 6.00 Build 0)  -->
<!DOCTYPE svg PUBLIC "-//W3C//DTD SVG 1.1//EN" "http://www.w3.org/Graphics/SVG/1.1/DTD/svg11.dtd">
<svg version="1.1" id="Layer_1" xmlns="http://www.w3.org/2000/svg" xmlns:xlink="http://www.w3.org/1999/xlink" x="0px" y="0px"
	 viewBox="0 0 175 175" style="enable-background:new 0 0 175 175;" xml:space="preserve">
<path d="M87.5,175C39.3,175,0,135.7,0,87.5S39.3,0,87.5,0S175,39.3,175,87.5S135.7,175,87.5,175z M87.5,15C47.5,15,15,47.5,15,87.5
	S47.5,160,87.5,160S160,127.5,160,87.5S127.5,15,87.5,15z"/>
<path d="M32.5,85.4c0.1-1.8,1-4.6,2.7-8.4s4-7.8,7-12.2C52.1,51,66,43.8,84,43v-2.3c0-1.1,0.4-2,1.1-2.7c0.7-0.7,1.6-1,2.5-1
	c1,0,1.9,0.3,2.7,1c0.7,0.7,1.2,1.6,1.2,2.7V43c5.2,0.2,10.1,1,14.6,2.4c4.5,1.4,8.4,3.1,11.8,5.3c3.3,2.2,6.2,4.4,8.5,6.7
	c2.4,2.3,4.5,4.8,6.4,7.5c2.2,3.1,4.1,6.5,5.6,10.1c1.5,3.6,2.7,6.4,3.2,8.5c0.6,2.1,0.9,3.2,1,3.2v1c0,1-0.4,1.7-1.1,2.3
	c-0.7,0.6-1.6,0.9-2.6,0.9c-1.6,0-2.7-0.5-3.2-1.4c-4.1-4.7-8.6-6.9-13.5-6.9c-1.8,0.1-3.7,0.5-5.5,1.2c-1.8,0.7-3.3,1.4-4.3,2.2
	c-1.1,0.7-2.1,1.5-3.1,2.3c-1,0.8-1.4,1.2-1.5,1.2c-1,0.9-2,1.4-2.8,1.4c-1.2,0-2.1-0.3-2.8-1c-3.9-3.9-7.4-6.2-10.7-7v40.1v0.9
	l-0.1,1.1l-0.2,1.2l-0.3,1.3l-0.5,1.4l-0.7,1.4l-0.9,1.4l-1.1,1.3c-2.7,3.1-6.5,4.7-11.6,4.7c-5.4,0-9.4-1.5-12.1-4.7
	c-0.6-0.6-1.2-1.3-1.6-2c-0.5-0.7-0.8-1.4-1.1-2.2c-0.3-0.7-0.5-1.4-0.6-2c-0.2-0.6-0.3-1.3-0.3-1.9c-0.1-0.8-0.2-1.3-0.2-1.7
	s0-0.8,0-1.2s0.1-0.6,0.1-0.7c0-1,0.4-1.8,1.2-2.5c0.8-0.7,1.8-1,2.9-0.7c1,0,1.7,0.4,2.3,1.2c0.6,0.8,1,1.8,1,3
	c-0.3,2.2,0.1,4,1.3,5.6c1.1,1.5,3.4,2.3,7,2.3c2.8,0,4.8-0.6,6-1.9c0.7-0.7,1.2-1.5,1.5-2.5c0.3-1,0.5-1.8,0.4-2.5l-0.1-1v-39
	c-3.9,1-7.3,3-10.2,6c-0.2,0.4-0.6,0.8-1.2,1.2c-0.6,0.4-1.1,0.6-1.6,0.6c-1,0-2-0.6-3.2-1.8c-4.2-4.7-8.7-7-13.5-6.9
	c-2.1,0.1-4.1,0.4-5.9,1.1c-1.9,0.7-3.2,1.4-4.2,2.1c-0.9,0.7-1.9,1.5-2.9,2.4c-1,0.9-1.5,1.4-1.7,1.5c-1.1,0.7-2,1.2-2.7,1.2
	c-0.7,0-1.6-0.3-2.5-0.9c-0.8-0.5-1.4-1.1-1.6-1.7C32.5,87.5,32.5,86.6,32.5,85.4z M43.6,77.9c3.6-1.9,7-2.8,10.2-2.8h0.4
	c6.1,0,11.7,2.3,16.7,7c2-1.7,4.5-3.3,7.4-4.7c2.9-1.4,6-2.2,9.4-2.4h0.4c6.1,0,11.7,2.3,16.7,7c2-1.7,4.5-3.3,7.4-4.7
	c2.9-1.4,6-2.2,9.4-2.4h0.5c3,0,6.1,0.8,9.3,2.3c-2.3-4.6-3.9-7.5-4.7-8.8C117.1,56.2,104,50,87.2,50c-8.4,0-15.8,1.6-22.5,4.8
	c-6.6,3.2-12,7.8-16.2,13.8C47.4,70.4,45.7,73.6,43.6,77.9z"/>
</svg>
