<?xml version="1.0" encoding="utf-8"?>
<!-- Generator: Adobe Illustrator 19.2.0, SVG Export Plug-In . SVG Version: 6.00 Build 0)  -->
<!DOCTYPE svg PUBLIC "-//W3C//DTD SVG 1.1//EN" "http://www.w3.org/Graphics/SVG/1.1/DTD/svg11.dtd">
<svg version="1.1" id="Layer_1" xmlns="http://www.w3.org/2000/svg" xmlns:xlink="http://www.w3.org/1999/xlink" x="0px" y="0px"
	 viewBox="0 0 175 175" style="enable-background:new 0 0 175 175;" xml:space="preserve">
<path d="M87.5,175C39.3,175,0,135.7,0,87.5S39.3,0,87.5,0S175,39.3,175,87.5S135.7,175,87.5,175z M87.5,15C47.5,15,15,47.5,15,87.5
	S47.5,160,87.5,160S160,127.5,160,87.5S127.5,15,87.5,15z"/>
<path d="M32.5,95.1c0,1.1,0.4,2.1,1.3,2.9c0.7,0.9,1.7,1.3,2.9,1.3h67.9c1.3,0,2.4,0.5,3.4,1.4c0.9,0.9,1.4,2.1,1.4,3.4
	c0,1.3-0.5,2.4-1.4,3.3c-0.9,0.9-2,1.3-3.4,1.3c-1.3,0-2.5-0.5-3.4-1.3c-0.7-0.8-1.7-1.2-2.8-1.2c-1.2,0-2.1,0.4-3,1.2
	c-0.8,0.8-1.2,1.8-1.2,2.8c0,1.2,0.4,2.1,1.3,2.9c2.6,2.5,5.6,3.8,9.1,3.8c3.6,0,6.7-1.2,9.3-3.7c2.6-2.5,3.8-5.5,3.8-9.1
	s-1.3-6.7-3.9-9.2c-2.6-2.6-5.7-3.9-9.2-3.9H36.7c-1.2,0-2.1,0.4-3,1.2C32.9,93,32.5,93.9,32.5,95.1z M32.5,79.9
	c0,1.1,0.4,2,1.3,2.8c0.8,0.8,1.8,1.2,2.9,1.2h92.6c3.6,0,6.7-1.2,9.3-3.8c2.6-2.5,3.9-5.5,3.9-9.1c0-3.6-1.3-6.7-3.9-9.2
	c-2.6-2.5-5.7-3.8-9.3-3.8c-3.6,0-6.6,1.2-9,3.7c-0.8,0.7-1.2,1.8-1.2,3.1c0,1.2,0.4,2.2,1.2,2.9c0.8,0.7,1.8,1.1,2.9,1.1
	c1.1,0,2.1-0.4,2.9-1.1c0.9-1,1.9-1.4,3.2-1.4c1.3,0,2.4,0.5,3.4,1.4c0.9,0.9,1.4,2,1.4,3.4c0,1.3-0.5,2.4-1.4,3.3
	c-0.9,0.9-2,1.3-3.4,1.3H36.7c-1.2,0-2.1,0.4-3,1.2C32.9,77.8,32.5,78.8,32.5,79.9z"/>
</svg>
